<svg width="213" height="221" xmlns="http://www.w3.org/2000/svg" xmlns:xlink="http://www.w3.org/1999/xlink" xml:space="preserve" overflow="hidden"><defs><clipPath id="clip0"><rect x="960" y="451" width="213" height="221"/></clipPath></defs><g clip-path="url(#clip0)" transform="translate(-960 -451)"><path d="M250.986 84.7745C254.168 84.612 256.319 87.4229 258.281 89.4316 256.67 91.0028 256.09 90.0018 254.715 88.3974 253.535 87.5886 251.761 86.3722 250.986 84.7745M260.83 92.2458C262.199 94.0523 262.965 96.2466 263.734 98.4409 262.345 98.4239 261.941 98.8154 261.361 97.6189 260.973 96.82 260.791 95.6234 260.598 94.8246 260.608 94.0324 260.622 93.038 260.83 92.2458M85.5565 288.207C85.762 287.613 85.9675 287.02 86.173 286.427 87.9431 288.038 88.5032 290.825 90.4722 292.241 92.4411 293.659 95.0232 293.888 97.2109 293.716 96.4386 292.118 95.663 290.318 95.0895 288.525 94.7083 287.126 94.5293 285.535 93.9526 284.139 93.3692 282.936 91.9936 281.73 91.8113 280.334 91.629 278.942 92.0533 276.96 92.2687 275.574 92.9449 269.024 93.4222 262.471 94.4962 255.928 94.9304 252.756 95.1691 249.577 96.1999 246.607 97.2308 243.442 98.6528 240.88 100.675 238.122 104.314 233.001 108.935 228.884 113.164 224.167 115.375 222.006 117.195 219.642 119.602 217.687 121.813 215.728 124.216 214.166 126.423 212.406 125.588 215.774 124.958 218.545 123.132 221.505 121.309 224.266 119.496 226.626 117.477 228.986 115.863 230.955 113.851 232.914 114.215 235.702 114.782 238.291 116.738 240.903 118.1 243.104 118.68 244.304 119.267 245.102 119.25 246.495 119.041 247.287 118.229 248.666 118.813 249.667 119.201 250.466 120.977 251.483 121.567 252.086 122.349 253.087 122.936 253.694 123.52 254.891 125.84 260.088 128.157 265.481 130.079 270.871 131.037 273.662 131.995 276.655 133.152 279.449 133.729 281.047 133.066 286.606 135.25 286.629 135.456 286.039 135.462 285.439 135.668 284.845 137.441 286.258 138.8 288.86 140.975 289.88 142.947 290.898 145.735 290.534 147.929 289.963 145.774 287.355 144.816 284.365 143.063 281.561 142.48 280.556 141.691 279.953 141.107 278.952 140.524 277.951 140.342 276.559 139.762 275.359 135.714 265.176 129.473 255.365 128.014 244.615 127.103 238.045 131.727 233.73 135.558 229.01 136.974 227.236 143.255 217.18 145.42 218.996 145.429 218.2 145.635 217.607 145.642 217.014L146.825 217.624C146.832 217.226 146.838 216.828 146.842 216.43 147.037 216.629 147.438 216.441 147.833 216.639 147.66 214.455 148.065 213.861 149.676 212.294 150.276 211.704 151.29 210.126 152.089 209.937 152.487 209.745 153.474 210.152 154.068 210.361 155.851 210.779 157.641 210.603 159.424 211.22 161.204 211.836 162.59 212.453 164.575 212.473 166.756 212.701 168.341 213.119 170.323 213.736 171.112 213.948 171.904 214.355 172.696 214.561 173.883 214.972 174.281 214.78 175.477 214.594 177.065 214.617 178.649 215.031 180.237 215.25 182.223 215.475 181.629 215.267 182.806 216.473 183.396 217.076 183.787 217.68 184.589 216.891 184.785 217.093 184.98 217.494 184.977 217.693 185.779 217.106 185.972 217.706 186.568 217.514 186.77 217.315 186.966 217.716 187.162 217.719 187.36 217.719 187.566 217.129 187.765 217.133 188.564 216.94 189.157 217.15 190.148 217.358 192.13 217.779 194.308 218.402 196.297 218.028 196.834 223.205 196.963 228.767 198.491 233.753 199.061 235.748 199.83 237.942 199.807 239.931 199.781 242.116 198.76 244.29 198.932 246.478 199.303 248.665 200.473 250.469 200.642 252.656 200.815 254.847 200.59 257.028 200.563 259.213 200.506 263.979 200.443 268.948 200.188 273.714 199.741 277.682 197.493 282.621 199.035 286.618 199.439 286.224 199.843 285.634 200.244 285.243 201.816 286.85 202.382 289.042 204.156 290.457 205.929 291.67 208.707 291.902 210.696 291.73 209.144 288.531 207.401 284.931 206.453 281.345 206.078 279.552 205.306 277.553 205.333 275.567 205.356 273.38 205.584 271 205.614 268.812 205.658 265.235 205.704 261.264 206.344 257.695 206.556 256.703 207.358 255.921 207.57 254.927 207.782 253.936 207.593 253.14 207.802 252.348 208.213 251.161 208.614 250.767 208.829 249.58 209.035 248.785 209.048 247.794 209.058 246.998 209.3 243.425 209.539 240.246 209.38 236.868 210.951 238.476 211.524 240.273 211.693 242.659 211.876 244.25 211.461 245.636 212.237 247.237 215.34 253.233 216.244 260.598 216.954 267.363 217.312 270.744 217.666 274.328 217.822 277.705 217.809 278.899 217.792 280.092 217.779 281.282 217.759 282.873 216.934 285.445 218.717 285.863 218.923 285.269 219.128 284.679 219.334 284.083 220.902 285.893 221.863 288.485 223.835 289.903 225.804 291.117 228.585 291.349 230.773 290.981 229.801 289.181 228.83 287.378 228.26 285.382 227.299 282.79 226.921 281.196 225.36 278.793 224.385 277.192 224.007 275.594 223.636 273.605 222.695 269.223 221.167 264.238 220.825 259.663 220.484 255.086 220.941 250.323 220.998 245.752 221.021 243.766 220.646 241.774 220.474 239.789 220.302 237.598 220.527 235.413 220.554 233.229 220.606 228.86 220.073 223.686 221.32 219.33 222.142 217.156 223.351 215.777 225.546 215.011 226.345 214.624 228.128 215.24 228.927 214.852 229.126 214.657 229.533 213.865 229.739 213.47 230.342 212.684 230.949 212.094 231.552 211.309 233.786 207.56 235.029 203.204 237.263 199.257 239.298 195.309 241.539 190.963 244.164 187.42 245.576 185.65 247.386 184.082 248.599 182.309 250.015 180.337 251.036 177.966 252.252 175.994 253.266 174.218 254.483 172.444 255.302 170.469 256.124 168.291 256.342 166.707 257.556 164.731 258.577 162.755 259.989 160.79 261.01 158.615 261.832 156.438 262.256 154.26 263.273 152.284 264.288 150.508 265.106 148.529 266.714 147.16 267.917 146.179 267.115 146.968 267.725 145.781 268.129 145.191 267.732 145.188 268.133 144.793 268.537 144.399 270.132 143.822 270.93 143.636 273.125 143.066 275.309 142.894 277.305 142.32 279.897 141.757 282.29 140.991 284.872 141.024 286.857 141.051 288.843 141.273 290.835 140.898 291.829 140.713 293.026 140.332 294.03 139.546 294.833 138.963 294.836 138.565 295.446 137.577 295.648 137.183 295.25 137.179 295.655 136.785 295.857 136.589 296.251 136.792 296.45 136.596 296.851 136.4 297.451 136.013 297.657 135.618 298.26 134.833 298.074 133.835 298.084 132.84 298.114 130.457 297.335 129.254 294.958 128.627 291.196 127.59 287.056 124.955 284.308 122.137 282.936 120.735 282.16 118.935 280.99 117.331 279.423 115.521 277.656 113.711 276.29 111.709 274.925 109.704 274.142 108.504 274.968 106.127 275.786 104.152 276.804 102.176 277.427 100.002 278.047 98.0196 279.26 96.2463 279.88 94.2674 280.095 92.8786 279.906 92.083 278.508 92.8587 277.709 93.2498 276.9 94.231 276.297 94.8177 274.689 96.1899 273.287 97.1678 271.487 98.3379 269.485 99.5046 269.068 101.089 268.643 103.27 267.48 101.069 266.31 99.0671 265.942 96.6805 265.378 94.0917 265.61 91.3107 265.64 88.7253 265.667 86.7431 265.69 84.9532 265.511 83.1632 265.528 81.7711 265.375 77.9956 264.195 76.9847 262.624 75.5792 263.559 80.3557 263.549 81.1512 263.724 82.9411 263.9 84.93 263.678 86.9154 263.668 87.711 263.648 89.2987 262.849 89.6865 262.047 90.0777 261.268 89.0733 260.877 88.2745 260.304 86.6735 260.728 84.2935 260.353 82.5003 260.36 81.9069 260.188 79.7193 259.793 79.5171 259.004 78.9072 258.792 80.1005 258.785 80.8927 258.56 82.8782 259.531 84.6814 258.911 86.6569 256.943 85.046 254.785 83.034 253.217 81.0253 251.854 78.821 251.695 75.6422 249.929 73.8291 248.921 75.0124 251.997 83.3952 248.828 82.56 247.642 82.149 246.09 78.9503 245.706 77.7537 245.132 75.9571 244.559 74.3594 243.979 72.7651 242.384 73.3418 244.31 78.3337 243.694 79.9148 242.673 82.086 238.334 79.4541 238.112 81.4363 240.084 82.4539 242.467 82.6826 244.443 83.5013 246.223 84.3167 247.781 86.9188 249.153 88.3275 250.134 89.534 253.283 91.9538 251.874 93.5282 251.069 94.3106 250.486 93.3095 249.286 93.694 248.086 94.2741 249.667 95.0895 250.456 95.6961 248.447 97.4595 248.195 101.828 248.162 104.41 248.145 105.803 248.324 107.39 248.507 108.786 248.881 110.579 249.269 111.378 250.442 112.783 250.041 113.174 249.644 113.37 249.239 113.761 249.637 113.768 250.028 114.169 250.429 114.175 250.028 114.169 249.431 114.361 248.835 114.55 249.425 114.954 249.819 115.16 250.214 115.561 249.61 115.952 248.815 116.141 248.212 116.532 248.805 116.738 249.199 116.94 249.796 117.149 248.185 118.717 246.379 120.284 244.771 121.856 245.563 121.862 246.157 122.071 246.952 122.081 246.753 122.273 246.352 122.469 245.951 122.664 246.349 122.671 246.942 122.873 247.337 123.079 244.731 125.034 242.713 127.391 241.092 130.152 241.489 130.159 241.884 130.364 242.285 130.169 239.643 134.906 238.387 140.057 235.347 144.787 233.726 147.353 231.718 149.116 229.308 151.274 227.7 152.646 225.692 154.605 223.693 155.377 219.301 157.111 213.55 156.246 208.787 155.792 204.222 155.338 199.449 155.676 194.872 156.017 192.29 156.183 189.903 156.355 187.321 156.123 184.941 155.895 182.962 155.278 180.582 154.648 174.834 153.385 168.875 153.511 163.117 153.047 160.336 152.812 157.359 152.577 154.585 152.146 152.404 151.721 150.027 150.896 147.843 150.869 141.887 150.598 134.926 150.909 129.145 152.431 126.752 153.196 124.75 154.562 122.552 155.328 120.155 156.292 117.567 156.859 115.173 157.625 110.788 158.762 105.816 159.1 102.011 161.632 102.405 161.639 102.601 161.841 102.999 161.848 102.8 162.043 102.601 162.04 102.399 162.235 102.598 162.239 102.793 162.637 102.992 162.64 102.787 163.233 102.382 163.628 101.978 164.218 103.565 164.436 101.315 169.776 100.31 170.555 100.708 170.562 101.103 170.764 101.5 170.767 100.692 171.951 99.6674 174.523 98.4708 174.705 98.6697 174.709 98.8653 174.908 99.0641 174.911 98.4575 175.899 98.0465 176.886 97.4366 178.07 97.8344 177.877 98.2321 178.08 98.4343 177.884 98.2289 178.279 98.2255 178.676 98.02 179.071 98.2189 179.074 98.6166 179.078 98.8188 178.885 99.389 180.877 98.1758 182.651 97.5526 184.629 97.9537 184.434 98.3515 184.441 98.5537 184.245 98.1526 184.639 97.9471 185.034 97.5427 185.425L98.7423 184.841C98.7423 185.044 98.7355 185.438 98.7325 185.836 99.3325 185.647 99.7269 185.65 100.128 185.458 100.317 186.055 100.314 186.452 100.509 186.853 100.708 186.655 100.914 186.26 101.116 185.866 101.103 187.056 102.094 187.268 102.876 188.073 103.661 188.875 103.857 189.276 104.242 190.274 105.014 192.074 105.783 194.073 106.356 196.065 106.93 197.858 106.907 199.847 106.489 201.428 106.071 203.211 106.247 204.806 105.829 206.788 105.412 208.372 104.596 209.953 104.377 211.538 103.96 213.321 103.937 215.108 103.519 216.891 102.485 220.06 99.8727 222.612 97.4597 224.966 95.0466 227.322 92.2324 229.673 91.1982 233.037 89.9651 236.398 91.5098 240.193 90.2767 243.359 89.6635 244.94 88.8547 245.921 88.636 247.708 88.4238 248.699 88.4172 249.295 88.8017 250.296 88.994 250.893 89.584 251.298 89.7762 251.897 90.1541 253.489 89.1232 256.458 88.9078 258.043 88.6923 259.236 88.4769 260.625 88.2647 261.812 87.8206 265.382 87.3797 269.154 86.9355 272.724 86.7168 274.51 86.2958 276.492 86.2726 278.282 86.2594 279.472 85.8218 282.645 86.4085 283.45 86.1931 284.836 85.1622 288.004 85.5566 288.207" transform="matrix(-1 0 0 1 1258.29 378.235)"/></g></svg>