<svg width="125" height="128" xmlns="http://www.w3.org/2000/svg" xmlns:xlink="http://www.w3.org/1999/xlink" xml:space="preserve" overflow="hidden"><defs><clipPath id="clip0"><rect x="577" y="296" width="125" height="128"/></clipPath></defs><g clip-path="url(#clip0)" transform="translate(-577 -296)"><path d="M123.562 45.0729C120.471 43.7765 117.479 42.8791 114.488 41.2836 112.394 40.1867 106.012 39.7878 106.012 36.9957 106.012 34.7021 111.396 32.9072 112.892 31.0125 114.687 28.719 115.784 24.3314 113.79 21.7387 113.69 23.035 114.189 27.2232 112.693 27.6221 112.693 26.5252 112.394 25.4283 111.596 24.6305 111.396 26.226 111.596 28.021 110.698 29.2176 110 30.0153 108.106 31.0125 107.108 31.4114 107.707 29.417 109.901 29.1179 110.599 27.3229 111.097 26.1263 111.097 23.2345 111.297 21.8384 111.895 17.8497 110.698 15.6558 108.604 12.3651 107.308 13.9606 109.103 15.8553 109.502 17.3511 109.901 19.0463 109.801 21.2401 109.402 22.9353 108.704 25.7274 105.712 29.417 103.618 31.5111 104.217 28.021 104.017 25.4283 101.724 22.6362 101.325 24.83 103.818 29.8159 100.826 30.6137 99.6296 30.9128 98.0341 29.9156 97.6352 28.8187 97.0369 26.9241 98.7321 25.7274 99.6296 24.3314 103.219 18.6474 101.624 11.5674 96.3389 7.37919 95.8403 11.5674 100.028 14.6587 99.131 19.3454 98.3332 23.8328 93.9456 25.3286 90.4555 22.4367 86.5664 19.146 87.065 15.1573 86.6661 10.6699 86.2673 6.88059 84.4723 2.49297 81.5805 1.77136e-14 80.8825 1.79494 82.6774 4.48734 83.2757 6.18256 83.9737 8.37638 84.4723 10.6699 84.3726 13.0632 83.2757 11.0688 81.9794 9.37356 80.683 7.67834 79.287 5.78369 78.5889 3.09128 76.6943 1.69522 77.3923 4.28791 78.4892 6.78088 78.9878 9.37356 78.4892 9.37356 78.0903 9.67272 77.5917 9.573 78.8881 10.7696 80.8825 10.7696 81.1816 12.8637 81.5805 15.6558 79.0875 14.8581 77.3923 13.9606 73.7027 12.066 72.5061 8.47609 70.412 5.18538 70.3123 7.08003 71.0103 8.57581 71.11 10.3708 68.3179 8.87497 67.6199 6.08284 65.2266 4.48734 66.0244 7.27947 67.4204 9.77244 67.919 12.5646 68.2182 14.8581 70.8109 18.0491 70.7111 20.1432 70.412 24.5308 65.8249 19.4452 65.1269 17.8497 63.8305 15.257 62.7336 12.6643 61.6367 9.97188 60.3404 13.5618 63.0328 15.955 62.5342 19.146 58.8446 19.0463 59.2435 12.6643 57.2491 10.6699 53.3601 19.9438 67.8193 25.2288 73.4036 29.2176 75.4977 30.7134 77.492 31.91 79.6858 33.1066 82.0791 34.403 83.5749 34.7021 86.0678 35.3004 88.1619 35.799 90.0566 36.9957 92.2504 37.3945 94.5439 37.7934 97.3361 36.9957 98.3332 39.7878 96.2391 39.0898 87.1647 35.4999 89.0594 40.1867 89.8571 41.9816 92.5496 42.3805 92.9484 44.0757 93.3473 45.9703 91.4526 48.1642 90.256 49.3608 88.4611 50.9563 88.1619 51.8538 87.1647 53.9478 85.8684 56.6403 84.1732 56.2414 81.3811 56.4408 77.6915 56.74 74.301 57.8369 70.5117 57.9366 66.2238 58.0363 62.3348 59.6318 58.0469 60.0307 53.8587 60.4296 49.3713 59.931 45.0834 59.5321 40.8952 59.1332 36.7071 59.6318 32.5189 59.4324 28.8293 59.2329 25.04 59.1332 21.4501 60.2301 17.0625 61.6262 12.6748 63.9197 9.18467 66.8116 4.39817 70.6009 6.19311 73.393 9.08495 77.9801 9.68327 75.7863 9.28439 73.5924 9.68327 71.2989 10.8799 72.0967 10.3813 73.7919 10.6805 75.2877 10.9796 76.9829 11.5779 77.7806 12.3757 79.1767 13.5723 81.3705 15.3672 84.1626 14.6692 86.7553 13.7717 89.7469 10.2816 91.1429 7.78861 92.539 5.0962 94.1345 3.60042 93.6359 3.40099 97.0264 3.00211 102.81 3.30127 108.594 2.70295 114.377 2.50352 116.571-0.18889 119.762 0.0105479 121.757 0.0105479 122.155 1.20717 123.053 1.50633 123.452 1.80549 123.851 1.50633 124.848 1.70577 125.147 2.60324 126.144 4.49789 126.543 5.69452 126.842 5.99367 125.247 4.99649 124.05 4.89677 122.455 4.69733 120.759 5.49508 119.363 5.69452 117.668 6.09339 114.677 5.79424 111.785 6.39255 108.693 6.99086 105.502 7.48945 102.81 10.0821 100.517 12.4754 98.4224 16.2647 98.8213 18.5582 96.7272 18.3588 98.0235 18.1594 99.3199 17.7605 100.517 17.3616 102.012 15.9655 103.309 15.5667 104.605 14.6692 107.796 17.4613 110.987 18.3588 113.779 19.2563 116.671 20.3532 119.563 21.2506 122.455 22.2478 126.144 22.6467 127.042 26.6355 127.042 26.1369 125.346 24.9402 124.05 24.2422 122.355 23.6439 120.859 23.245 119.164 22.8461 117.568 22.0484 113.979 20.9515 110.189 22.3475 106.799 23.8433 103.309 26.436 100.118 28.3307 96.8269 29.0287 95.5306 29.7267 94.1345 30.5245 92.9379 32.12 90.3452 32.2197 90.2455 35.4107 91.3424 39.2 92.7384 42.1916 93.9351 46.1803 94.2342 50.1691 94.5334 54.1578 93.9351 58.0469 93.8354 60.141 93.7356 67.3207 92.9379 68.4176 94.5334 69.0159 95.4308 68.4176 99.3199 68.4176 100.417 68.4176 102.411 68.4176 104.206 68.2182 106.2 67.8193 110.289 67.8193 114.278 67.3207 118.366 67.1213 120.161 66.523 123.352 67.0216 125.147 67.7196 127.441 69.714 127.241 71.8081 127.241 69.714 122.056 70.2125 117.768 71.8081 112.582 73.3038 107.497 73.8024 102.511 75.5974 97.6247 76.8937 94.1345 77.2926 94.0348 80.9822 95.2314 83.5749 96.0292 85.8684 97.5249 88.3614 98.7216 94.1451 101.314 96.0397 106.001 98.433 111.486 99.5299 114.178 100.527 116.372 100.627 119.264 100.726 120.361 100.328 122.654 101.026 123.651 101.524 124.449 103.718 125.147 104.516 125.646 108.405 121.557 101.225 110.189 99.6296 106.001 98.3332 102.71 98.6324 99.3199 95.7405 96.8269 93.5467 94.9323 88.2616 92.9379 87.3642 90.046 86.4667 87.2539 92.8487 84.9604 94.8431 83.2652 97.9344 80.7722 100.527 78.8775 104.017 77.0826 107.308 75.2877 107.507 72.1964 109.203 69.0054 110.2 67.011 110.499 66.8116 110.499 64.4183 110.499 62.4239 110.299 60.5293 111.097 58.7343 112.394 55.8425 116.582 52.6515 119.474 51.6543 121.169 50.9563 122.465 51.2554 123.861 49.8594 124.858 48.6628 125.955 46.0701 123.562 45.0729ZM88.4611 29.417C88.6605 32.3089 84.6718 32.5083 82.6774 31.8103 80.683 31.1123 77.7912 28.6193 76.3951 27.0238 74.5005 24.9297 73.8024 22.8356 73.603 20.1432 73.4036 17.2513 71.6086 15.1573 70.2125 12.6643 76.096 19.0463 89.2588 18.1488 88.4611 29.417ZM98.2335 34.3033C96.638 34.3033 91.3529 35.0013 90.3557 33.4058 90.1563 33.1066 90.8543 30.5139 90.7546 29.8159 90.6549 28.6193 90.0566 27.6221 90.1563 26.3258 92.051 27.5224 92.8487 28.3201 94.2448 30.1151 95.1422 31.212 98.433 33.1066 98.2335 34.3033Z" fill="#010101" transform="matrix(-1 0 0 1 702 296.377)"/></g></svg>