<svg width="222" height="123" xmlns="http://www.w3.org/2000/svg" xmlns:xlink="http://www.w3.org/1999/xlink" xml:space="preserve" overflow="hidden"><g transform="translate(-529 -298)"><path d="M99.7229 151.628C100.989 156.704 102.493 161.539 104.189 166.482 105.098 169.136 104.682 170.723 104.098 173.482 103.352 176.984 102.887 178.009 100.332 180.511 98.5794 182.229 96.5655 183.491 94.5649 184.917 91.7409 186.931 90.1522 187.602 89.9463 191.165 89.6598 196.103 90.2551 201.187 90.3245 206.15 90.3714 209.406 90.9734 212.179 89.2571 214.931 87.4624 217.809 87.3975 219.745 88.588 222.949 89.0535 222.56 89.7136 222.367 90.1477 221.947 89.8859 223.598 89.1362 225.594 89.1116 227.237 89.0807 229.094 90.0045 230.976 90.7049 232.636 93.2201 228.953 96.3327 225.509 97.8566 221.269 99.2574 217.361 98.7965 213.034 99.1388 208.927 99.5685 203.819 99.3335 199.854 103.751 196.566 105.789 195.045 107.738 194.602 110.025 193.581 112.124 192.648 114.031 191.227 115.998 190.034 117.994 188.824 120.053 187.723 122.1 186.6 124.065 185.516 125.75 183.767 127.838 182.974 129.104 186.732 128.713 191.775 127.753 195.591 127.168 197.922 126.197 199.574 127.307 201.861 128.272 203.841 130.239 205.613 131.682 207.22 134.732 210.619 137.804 213.967 140.745 217.462 143.515 220.756 145.131 224.73 148.812 227.096 150.768 228.353 152.641 230.036 154.764 230.877 157.449 231.945 159.689 231.936 162.525 231.857 160.3 227.319 156.364 224.012 153.2 220.076 149.944 216.026 146.489 211.798 143.822 207.327 141.331 203.152 142.884 198.728 144.567 194.519 146.399 189.94 148.362 184.957 149.526 180.202 149.895 178.696 149.944 178.107 150.857 176.973 152.11 175.415 152.291 175.72 154.061 176.335 156.275 177.103 158.564 177.546 160.851 178.069 166.098 179.271 171.227 180.305 176.6 180.813 180.039 181.139 187.681 179.799 188.99 183.796 190.382 188.036 189.391 192.973 188.256 197.2 187.336 200.626 186.455 204.3 185.152 207.596 184.168 210.084 182.152 211.053 179.746 212.186 176.123 213.889 167.13 216.542 167.369 221.613 168.533 221.156 169.654 220.501 170.932 220.611 166.861 223.777 164.588 226.823 166.812 231.969 170.824 229.682 174.548 227.178 178.209 224.343 182.185 221.26 186.481 218.512 190.404 215.39 198.046 209.31 200.449 200.778 205.332 192.715 206.923 190.09 208.075 188.741 210.606 186.913 211.875 185.995 214.688 183.52 216.142 183.563 218.007 183.614 220.32 187.217 221.424 188.392 222.811 189.867 224.409 190.97 225.89 192.337 229.307 195.488 231.934 199.442 235.427 202.46 239.348 205.846 243.049 209.272 247.271 212.273 251.022 214.936 253.365 221.407 257.849 222.732 259.534 223.231 259.892 222.474 261.19 222.218 262.51 221.958 263.647 222.314 265.16 222.538 267.749 222.925 270.441 223.513 272.54 221.835 267.476 218.584 260.803 216.274 256.518 212 251.85 207.344 248.153 200.924 244.821 195.256 242.941 192.06 241.243 188.963 239.672 185.613 238.399 182.899 236.029 180.35 237.9 177.363 239.605 174.637 243.4 172.438 245.958 170.661 247.327 169.71 248.798 169.271 250.196 168.407 251.239 167.761 252.12 166.094 253.154 165.727 255.99 164.72 259.592 167.949 261.953 168.839 265.173 170.057 269.302 170.03 272.316 171.672 273.531 172.332 274.332 173.744 275.554 174.4 277.082 175.219 278.899 175.36 280.584 175.429 282.097 175.493 283.61 175.456 285.12 175.512 285.68 175.539 287.266 175.455 287.738 175.736 288.255 176.047 288.197 176.981 288.808 177.314 290.979 178.498 295.411 174.251 296.812 172.731 298.473 170.93 297.875 170.907 296.228 169.974 294.87 169.205 293.852 168.636 292.84 167.034 291.077 164.241 289.622 161.52 287.445 158.994 285.042 156.201 282.591 154.476 279.832 152.075 274.916 147.796 271.87 142.383 268.863 136.652 268.044 135.09 267.319 134.256 265.992 133.052 264.117 131.351 265.036 131.459 264.618 128.964 264.099 125.878 261.481 124.121 259.789 121.734 257.818 118.95 258.444 115.739 255 113.825 253.412 112.944 252.933 113.147 251.693 111.644 250.713 110.453 249.545 108.417 248.05 110.605 246.244 113.25 248.8 117.865 244.156 117.641 240.618 117.471 237.342 118.032 233.814 118.529 230.034 119.059 227.81 119.158 224.079 118.426 221.3 117.878 218.619 116.817 215.842 116.35 209.067 115.208 201.975 115.029 195.114 114.501 182.122 113.501 168.801 116.124 155.737 116.654 148.706 116.938 142.027 117.166 135.114 118.39 131.838 118.972 128.028 118.775 125.694 121.21 123.496 123.504 121.348 125.603 118.605 127.276 112.921 130.743 106.664 133.347 100.897 136.686 98.2906 138.197 95.1936 140 92.0003 138.989 90.2773 138.442 89.5679 136.97 87.5137 137.317 86.0167 137.567 84.7837 138.85 83.5082 139.796 81.6867 141.15 76.8532 144.064 77.7304 146.619 79.9659 144.462 81.6934 143.162 84.4682 141.775 85.3767 143.706 81.2749 146.548 80.3082 148.416 79.6392 149.705 79.5586 150.797 79.0417 152.122 78.5337 153.422 77.9027 153.919 76.7861 154.914 77.8691 154.344 79.6034 153.834 80.4828 152.97 81.3264 152.142 81.1451 151.374 81.5949 150.144 82.349 148.087 83.9938 146.494 85.4706 144.894 84.8643 146.087 83.8371 147.447 83.5216 148.736 83.0674 150.589 83.488 151.193 82.4878 152.894 80.9907 155.44 78.5651 157.636 76.117 159.258 81.633 156.944 85.4572 153.854 87.3839 147.895 88.1649 145.476 88.4133 142.253 91.8504 142.343 94.9989 142.426 96.8137 144.164 100.056 142.724 99.2214 145.953 99.2103 148.34 99.7227 151.63" transform="matrix(-1 0 0 1 826.958 188.364)"/></g></svg>